<svg width="20" height="24" viewBox="0 0 20 24" fill="none" xmlns="http://www.w3.org/2000/svg">
<path d="M13.949 23.876C13.216 23.876 12.563 23.628 11.934 23.392C11.395 23.187 10.887 22.995 10.405 22.995C9.97701 22.995 9.48901 23.178 8.97201 23.37C8.34701 23.601 7.63901 23.866 6.87001 23.866C5.60601 23.866 4.47301 23.142 3.40101 21.657C3.35601 21.594 -1.00799 15.185 1.11201 10.426C2.27301 7.82 3.94601 6.497 6.08401 6.497C7.21201 6.497 8.25301 6.851 9.08901 7.136C9.55701 7.295 9.99901 7.445 10.232 7.445C10.507 7.445 10.949 7.284 11.414 7.111C12.19 6.826 13.158 6.469 14.268 6.469C15.877 6.469 17.333 7.212 18.721 8.74C18.7678 8.79219 18.8033 8.85354 18.8252 8.92016C18.847 8.98678 18.8548 9.05721 18.848 9.127C18.8403 9.19664 18.8183 9.26394 18.7834 9.32468C18.7484 9.38542 18.7013 9.4383 18.645 9.48C17.182 10.546 16.44 11.779 16.44 13.146C16.44 14.839 17.276 16.083 19.231 17.3C19.3339 17.3634 19.4102 17.4622 19.4455 17.5778C19.4808 17.6934 19.4729 17.8179 19.423 17.928C17.585 22.04 15.897 23.876 13.949 23.876ZM10.279 6.211C10.159 6.211 10.038 6.203 9.91901 6.189C9.80105 6.17496 9.69201 6.11913 9.61166 6.03163C9.53131 5.94412 9.48496 5.83073 9.48101 5.712C9.34901 2.366 12.185 0.316998 14.281 0.126998C14.4055 0.116392 14.5296 0.152337 14.6291 0.227885C14.7287 0.303432 14.7967 0.413213 14.82 0.535998C15.051 1.824 14.619 3.24 13.632 4.42C12.694 5.542 11.44 6.211 10.279 6.211Z" fill="white"/>
</svg>
