<svg width="24" height="24" viewBox="0 0 24 24" fill="none" xmlns="http://www.w3.org/2000/svg">
<path d="M12 17C5.271 17 0 14.804 0 12C0 9.196 5.271 7 12 7C18.729 7 24 9.196 24 12C24 14.804 18.729 17 12 17ZM12 8C5.518 8 1 10.108 1 12C1 13.892 5.518 16 12 16C18.482 16 23 13.892 23 12C23 10.108 18.482 8 12 8Z" fill="white"/>
<path d="M7.67101 23.001C7.19201 23.001 6.76101 22.883 6.38201 22.647C4.00001 21.165 4.81201 15.329 8.22901 9.363C10.739 4.98 13.974 1.742 16.471 1.112C17.304 0.903999 18.024 0.983999 18.618 1.352C21 2.835 20.188 8.671 16.771 14.637C14.261 19.02 11.026 22.258 8.52901 22.888C8.24868 22.9605 7.96055 22.9984 7.67101 23.001ZM6.91001 21.798C7.26401 22.019 7.72601 22.058 8.28401 21.918C10.496 21.36 13.558 18.234 15.902 14.141C19.212 8.363 19.711 3.211 18.09 2.203C17.736 1.982 17.274 1.942 16.716 2.083C14.504 2.641 11.442 5.767 9.09801 9.86C5.78801 15.638 5.28901 20.789 6.91001 21.798Z" fill="white"/>
<path d="M16.329 23.001C16.058 23.001 15.772 22.963 15.471 22.888C12.974 22.258 9.73901 19.02 7.22901 14.637C3.81201 8.671 3.00001 2.835 5.38201 1.353C5.97501 0.984999 6.69701 0.904999 7.52901 1.113C10.026 1.743 13.261 4.981 15.771 9.364C19.188 15.33 20 21.166 17.619 22.648C17.239 22.883 16.808 23.001 16.329 23.001ZM6.67701 2C6.40735 1.99311 6.1413 2.06318 5.91001 2.202C4.28901 3.211 4.78801 8.362 8.09801 14.14C10.442 18.234 13.504 21.36 15.716 21.917C16.274 22.057 16.736 22.018 17.09 21.797C18.711 20.788 18.212 15.637 14.902 9.859C12.558 5.765 9.49601 2.639 7.28401 2.082C7.08584 2.0297 6.88195 2.00215 6.67701 2Z" fill="white"/>
<path d="M12 14.5C10.622 14.5 9.5 13.379 9.5 12C9.5 10.621 10.622 9.5 12 9.5C13.378 9.5 14.5 10.621 14.5 12C14.5 13.379 13.378 14.5 12 14.5ZM12 10.5C11.173 10.5 10.5 11.173 10.5 12C10.5 12.827 11.173 13.5 12 13.5C12.827 13.5 13.5 12.827 13.5 12C13.5 11.173 12.827 10.5 12 10.5Z" fill="white"/>
</svg>
